<svg xmlns="http://www.w3.org/2000/svg" xmlns:xlink="http://www.w3.org/1999/xlink" width="15" height="15" viewBox="0 0 15 15"><defs><path id="a94pa" d="M962.689 22A2.311 2.311 0 0 1 965 24.311V34.69A2.311 2.311 0 0 1 962.689 37h-2.34v-5.809h1.95l.292-2.264h-2.241v-1.445c0-.655.182-1.102 1.122-1.102h1.198v-2.025c-.207-.028-.918-.09-1.746-.09-1.729 0-2.912 1.056-2.912 2.993v1.67h-1.955v2.263h1.955V37h-5.7A2.311 2.311 0 0 1 950 34.689V24.31A2.311 2.311 0 0 1 952.311 22h10.378"/></defs><g><g transform="translate(-950 -22)"><use fill="#2ca2e0" xlink:href="#a94pa"/></g></g></svg>