<svg xmlns="http://www.w3.org/2000/svg" xmlns:xlink="http://www.w3.org/1999/xlink" width="15" height="15" viewBox="0 0 15 15"><defs><path id="nevqa" d="M999.955 26.408c.036.8.045 1.055.045 3.092s-.009 2.292-.045 3.092c-.037.799-.163 1.344-.349 1.82a3.676 3.676 0 0 1-.865 1.33 3.677 3.677 0 0 1-1.328.864c-.477.186-1.022.312-1.82.349-.8.036-1.056.045-3.093.045s-2.292-.009-3.092-.045c-.799-.037-1.344-.163-1.82-.349a3.676 3.676 0 0 1-1.33-.865 3.676 3.676 0 0 1-.864-1.328c-.186-.477-.312-1.022-.349-1.82-.036-.8-.045-1.056-.045-3.093s.009-2.292.045-3.092c.037-.799.163-1.344.349-1.82.191-.494.448-.912.865-1.33a3.676 3.676 0 0 1 1.328-.864c.477-.186 1.022-.312 1.82-.349.8-.036 1.056-.045 3.093-.045s2.292.009 3.092.045c.799.037 1.344.163 1.82.349.494.191.912.448 1.33.865.416.417.673.835.864 1.328.186.477.312 1.022.349 1.82m-1.35 6.124c.036-.791.044-1.028.044-3.031s-.008-2.24-.044-3.03c-.033-.732-.156-1.129-.258-1.393-.136-.35-.299-.6-.561-.863a2.324 2.324 0 0 0-.863-.56c-.264-.103-.661-.226-1.392-.259-.791-.036-1.028-.044-3.031-.044s-2.24.008-3.03.044c-.732.033-1.129.156-1.393.258-.35.136-.6.299-.863.561a2.324 2.324 0 0 0-.56.863c-.103.264-.226.661-.259 1.392-.036.791-.044 1.028-.044 3.031s.008 2.24.044 3.03c.033.732.156 1.129.258 1.393.136.35.299.6.561.863.263.262.513.425.863.56.264.103.661.226 1.392.259.791.036 1.028.044 3.031.044s2.24-.008 3.03-.044c.732-.033 1.129-.156 1.393-.258.35-.136.6-.299.863-.561.262-.263.425-.513.56-.863.103-.264.226-.661.259-1.392m-6.105-6.882a3.851 3.851 0 1 1 0 7.702 3.851 3.851 0 0 1 0-7.702m0 6.351a2.5 2.5 0 1 0 0-5 2.5 2.5 0 0 0 0 5m4.903-6.504a.9.9 0 1 1-1.8 0 .9.9 0 0 1 1.8 0"/></defs><g><g transform="translate(-985 -22)"><use fill="#2ca2e0" xlink:href="#nevqa"/></g></g></svg>