<svg xmlns="http://www.w3.org/2000/svg" width="17" height="10" viewBox="0 0 17 10"><g><g><path fill="#d8d8d8" d="M16.224 9.958l-2.27.033s-.488.1-1.13-.355c-.85-.601-1.65-2.164-2.274-1.96-.633.207-.613 1.613-.613 1.613s.005.3-.14.46c-.156.174-.463.21-.463.21H8.318s-2.242.138-4.217-1.982C1.948 5.666.046 1.078.046 1.078s-.11-.3.01-.446C.19.468.554.458.554.458L2.984.44s.228.04.392.164c.135.102.21.294.21.294s.393 1.023.913 1.95c1.015 1.807 1.487 2.203 1.832 2.01.502-.283.351-2.557.351-2.557s.01-.825-.252-1.192C6.227.825 5.844.742 5.675.719c-.136-.02.088-.346.379-.493.437-.22 1.209-.233 2.12-.224.711.008.916.053 1.194.123.837.208.553 1.013.553 2.945 0 .618-.108 1.488.325 1.776.186.124.641.019 1.78-1.974.539-.945.943-2.055.943-2.055s.089-.198.226-.283c.14-.086.33-.06.33-.06l2.556-.016s.768-.095.893.263c.13.375-.287 1.251-1.332 2.686-1.714 2.357-1.905 2.137-.482 3.499 1.36 1.302 1.642 1.935 1.688 2.014.564.962-.624 1.038-.624 1.038"/></g></g></svg>