<svg xmlns="http://www.w3.org/2000/svg" xmlns:xlink="http://www.w3.org/1999/xlink" width="17" height="11" viewBox="0 0 17 11"><defs><path id="ywuza" d="M930.224 35.157l-2.27.034s-.488.101-1.13-.363c-.85-.613-1.65-2.207-2.274-1.998-.633.21-.613 1.645-.613 1.645s.005.306-.14.47c-.156.177-.463.212-.463.212h-1.016s-2.242.142-4.217-2.02c-2.153-2.358-4.055-7.037-4.055-7.037s-.11-.307.01-.456c.134-.166.498-.177.498-.177l2.43-.017s.228.04.392.167a.8.8 0 0 1 .21.3s.393 1.044.913 1.988c1.015 1.845 1.487 2.248 1.832 2.05.502-.288.351-2.607.351-2.607s.01-.841-.252-1.216c-.203-.29-.586-.375-.755-.399-.136-.02.088-.353.379-.503.437-.225 1.209-.238 2.12-.228.711.008.916.054 1.194.125.837.213.553 1.034.553 3.004 0 .63-.108 1.518.325 1.812.186.127.641.02 1.78-2.014.539-.963.943-2.096.943-2.096s.089-.202.226-.288c.14-.089.33-.061.33-.061l2.556-.017s.768-.096.893.268c.13.383-.287 1.277-1.332 2.74-1.714 2.404-1.905 2.18-.482 3.57 1.36 1.327 1.642 1.973 1.688 2.053.564.982-.624 1.06-.624 1.06"/></defs><g><g transform="translate(-914 -25)"><use fill="#2ca2e0" xlink:href="#ywuza"/></g></g></svg>